<?xml version="1.0" encoding="utf-8"?>
<!-- Generator: Adobe Illustrator 26.5.0, SVG Export Plug-In . SVG Version: 6.00 Build 0)  -->
<svg version="1.1" id="Layer_1" xmlns:serif="http://www.serif.com/"
	 xmlns="http://www.w3.org/2000/svg" xmlns:xlink="http://www.w3.org/1999/xlink" x="0px" y="0px" viewBox="0 0 432 432"
	 style="enable-background:new 0 0 432 432;" xml:space="preserve">
<style type="text/css">
	.st0{fill-rule:evenodd;clip-rule:evenodd;fill:#FFFFFF;}
</style>
<path class="st0" d="M379.2,0C408.4,0,432,23.7,432,52.8v326.4c0,29.1-23.7,52.8-52.8,52.8H52.8C23.7,432,0,408.3,0,379.2V52.8
	C0,23.7,23.6,0,52.8,0L379.2,0L379.2,0z M384.5,279c0.8-11.7-0.2-22.8-2.9-33.5c-2.7-10.7-7.1-20.2-13.2-28.5
	c-6.1-8.3-13.9-15-23.4-19.9c-9.6-5-20.7-7.4-33.4-7.4c-11.5,0-21.9,2-31.4,6.1c-9.4,4.1-17.5,9.7-24.3,16.8
	c-6.8,7-12,15.4-15.7,25.2c-3.7,9.7-5.6,20.2-5.6,31.4c0,11.6,1.8,22.4,5.4,32c3.6,9.7,8.7,18,15.3,25c6.7,7,14.7,12.3,24.3,16.2
	c9.6,3.8,20.2,5.7,32.1,5.7c17,0,31.6-3.9,43.5-11.7c12.1-7.8,21-20.7,26.8-38.8h-36.4c-1.4,4.6-5,9.1-11,13.3
	c-6,4.2-13.2,6.3-21.6,6.3c-11.6,0-20.5-3-26.7-9.1c-6.2-6-10.2-17.3-10.2-29.2L384.5,279L384.5,279z M147.9,344.2
	c9.3,0,18.4-1.2,27.1-3.5c8.9-2.3,16.7-5.9,23.6-10.8c6.8-4.8,12.4-11.1,16.4-18.8c4-7.6,6-16.7,6-27.2c0-13-3.1-24.1-9.4-33.3
	c-6.3-9.2-15.7-15.7-28.5-19.3c9.4-4.4,16.4-10.2,21.2-17.1c4.8-7,7.1-15.7,7.1-26.2c0-9.7-1.6-17.8-4.7-24.4
	c-3.2-6.6-7.8-11.9-13.6-15.8c-5.9-4-12.8-6.8-21-8.6c-8.2-1.8-17.2-2.6-27.1-2.6H47.3v207.6H147.9L147.9,344.2z M142.6,251.7
	c9.8,0,17.8,2.3,23.8,6.8c6,4.6,9,12.2,9,22.9c0,5.5-0.9,10-2.7,13.5c-1.8,3.5-4.4,6.3-7.4,8.3c-3.1,2.1-6.7,3.5-10.8,4.4
	c-4,0.9-8.3,1.3-12.8,1.3H93v-57.2H142.6z M333.7,229.2c-4.9-5.4-13.2-8.4-23.4-8.4c-6.6,0-12.1,1.1-16.4,3.4
	c-4.3,2.2-7.8,5-10.5,8.3c-2.7,3.3-4.5,6.8-5.5,10.6c-1.1,3.7-1.7,7-1.9,9.9h67.2C342.2,242.4,338.6,234.7,333.7,229.2L333.7,229.2z
	 M135.7,172c4.1,0,8,0.3,11.8,1c3.8,0.7,7.1,1.9,10.1,3.6c2.9,1.7,5.3,4.1,7,7.2c1.7,3.1,2.5,7.1,2.5,11.9c0,8.7-2.5,15-7.8,18.9
	c-5.3,3.9-12,5.8-20.1,5.8H93V172L135.7,172L135.7,172z M351.7,171v-20.5h-84.1V171H351.7z"/>
</svg>
