<?xml version="1.0" encoding="utf-8"?>
<!-- Generator: Adobe Illustrator 26.5.0, SVG Export Plug-In . SVG Version: 6.00 Build 0)  -->
<svg version="1.1" id="Layer_1" xmlns:serif="http://www.serif.com/"
	 xmlns="http://www.w3.org/2000/svg" xmlns:xlink="http://www.w3.org/1999/xlink" x="0px" y="0px" viewBox="0 0 432 432"
	 style="enable-background:new 0 0 432 432;" xml:space="preserve">
<style type="text/css">
	.st0{fill-rule:evenodd;clip-rule:evenodd;fill:#FFFFFF;}
</style>
<path class="st0" d="M379.2,0C408.4,0,432,23.7,432,52.8v326.4c0,29.1-23.7,52.8-52.8,52.8H52.8C23.7,432,0,408.3,0,379.2V52.8
	C0,23.7,23.6,0,52.8,0L379.2,0L379.2,0z M135.4,357.1V166.7H72.1v190.4H135.4z M363.7,357.1V247.9c0-58.5-31.2-85.7-72.9-85.7
	c-33.6,0-48.6,18.5-57.1,31.4v-27h-63.3c0.8,17.9,0,190.4,0,190.4h63.3V250.8c0-5.7,0.4-11.4,2.1-15.5c4.6-11.4,15-23.1,32.5-23.1
	c22.9,0,32.1,17.5,32.1,43.1v101.9H363.7L363.7,357.1z M104.2,74.9c-21.7,0-35.8,14.2-35.8,32.9c0,18.3,13.7,32.9,35,32.9h0.4
	c22.1,0,35.8-14.6,35.8-32.9C139.1,89.1,125.8,74.9,104.2,74.9z"/>
</svg>
